<?xml version="1.0" encoding="utf-8"?>
<!-- Generator: Adobe Illustrator 16.0.0, SVG Export Plug-In . SVG Version: 6.00 Build 0)  -->
<!DOCTYPE svg PUBLIC "-//W3C//DTD SVG 1.1//EN" "http://www.w3.org/Graphics/SVG/1.1/DTD/svg11.dtd">
<svg version="1.1" id="Layer_1" xmlns="http://www.w3.org/2000/svg" xmlns:xlink="http://www.w3.org/1999/xlink" x="0px" y="0px"
	 width="24px" height="48px" viewBox="0 -12 24 48" enable-background="new 0 -12 24 48" xml:space="preserve">
<path fill="#FFFFFF" d="M23.1,22.402L13.041,32.458c-0.035,0.048-0.075,0.093-0.118,0.139c-0.251,0.25-0.58,0.373-0.909,0.372
	c-0.329,0.001-0.658-0.122-0.909-0.372c-0.042-0.041-0.08-0.087-0.116-0.134L0.929,22.402c-0.497-0.498-0.497-1.303,0-1.799
	c0.497-0.496,1.302-0.496,1.8,0l9.285,9.286l9.285-9.286c0.498-0.496,1.303-0.496,1.801,0c0.248,0.248,0.373,0.573,0.373,0.898
	C23.473,21.828,23.348,22.152,23.1,22.402z"/>
<path fill="#08B4E1" d="M0.794-6.364c0-0.317,0.122-0.635,0.364-0.879c0.486-0.484,1.273-0.484,1.76,0l9.081,9.083l9.082-9.083
	c0.488-0.484,1.275-0.484,1.761,0c0.485,0.486,0.485,1.274,0,1.76l-9.839,9.841c-0.034,0.045-0.071,0.088-0.113,0.129
	c-0.245,0.245-0.566,0.366-0.889,0.364c-0.321,0.002-0.644-0.119-0.888-0.364c-0.042-0.042-0.081-0.087-0.116-0.134L1.16-5.483
	C0.917-5.726,0.794-6.043,0.794-6.364z"/>
</svg>
