<?xml version="1.0" encoding="utf-8"?>
<!-- Generator: Adobe Illustrator 16.0.0, SVG Export Plug-In . SVG Version: 6.00 Build 0)  -->
<!DOCTYPE svg PUBLIC "-//W3C//DTD SVG 1.1//EN" "http://www.w3.org/Graphics/SVG/1.1/DTD/svg11.dtd">
<svg version="1.1" id="Layer_1" xmlns="http://www.w3.org/2000/svg" xmlns:xlink="http://www.w3.org/1999/xlink" x="0px" y="0px"
	 width="24px" height="24px" viewBox="0 0 24 24" enable-background="new 0 0 24 24" xml:space="preserve">
<g>
	<path fill="#FFFFFF" d="M23.175,20.633l-4.815-4.816c1.161-1.675,1.74-3.543,1.74-5.602c0-1.339-0.259-2.619-0.779-3.841
		c-0.52-1.222-1.223-2.275-2.107-3.159c-0.884-0.885-1.937-1.587-3.158-2.106c-1.221-0.52-2.502-0.78-3.841-0.78
		c-1.339,0-2.619,0.26-3.84,0.78C5.151,1.627,4.098,2.329,3.214,3.214C2.329,4.099,1.627,5.152,1.108,6.374
		c-0.52,1.222-0.78,2.502-0.78,3.841c0,1.338,0.26,2.619,0.78,3.839c0.519,1.223,1.221,2.275,2.106,3.159
		c0.884,0.885,1.938,1.587,3.159,2.107c1.222,0.521,2.501,0.779,3.84,0.779c2.06,0,3.927-0.581,5.603-1.74l4.816,4.801
		c0.337,0.356,0.758,0.534,1.264,0.534c0.487,0,0.91-0.178,1.264-0.534c0.356-0.355,0.534-0.776,0.534-1.264
		C23.694,21.401,23.521,20.979,23.175,20.633z M14.657,14.657c-1.23,1.232-2.711,1.848-4.443,1.848
		c-1.732,0-3.213-0.615-4.444-1.848c-1.232-1.23-1.847-2.711-1.847-4.443C3.923,8.482,4.539,7,5.77,5.77
		C7,4.538,8.482,3.923,10.214,3.923s3.213,0.616,4.443,1.847c1.233,1.23,1.848,2.712,1.848,4.444
		C16.505,11.946,15.89,13.427,14.657,14.657z"/>
</g>
</svg>
