<?xml version="1.0" encoding="utf-8"?>
<!-- Generator: Adobe Illustrator 16.0.0, SVG Export Plug-In . SVG Version: 6.00 Build 0)  -->
<!DOCTYPE svg PUBLIC "-//W3C//DTD SVG 1.1//EN" "http://www.w3.org/Graphics/SVG/1.1/DTD/svg11.dtd">
<svg version="1.1" id="Layer_1" xmlns="http://www.w3.org/2000/svg" xmlns:xlink="http://www.w3.org/1999/xlink" x="0px" y="0px"
	 width="24px" height="48px" viewBox="0 -12 24 48" enable-background="new 0 -12 24 48" xml:space="preserve">
<path fill="#08B4E1" d="M1.145,1.459l9.837-9.836c0.035-0.047,0.074-0.092,0.116-0.134c0.245-0.245,0.567-0.366,0.888-0.364
	c0.322-0.002,0.644,0.119,0.889,0.364c0.042,0.041,0.079,0.084,0.113,0.129l9.839,9.841c0.485,0.485,0.485,1.273,0,1.76
	c-0.485,0.484-1.272,0.484-1.761,0l-9.082-9.083L2.904,3.219c-0.487,0.484-1.274,0.484-1.76,0C0.902,2.975,0.78,2.657,0.78,2.34
	C0.78,2.02,0.902,1.702,1.145,1.459z"/>
<path fill="#FFFFFF" d="M0.78,32.765c0,0.318,0.122,0.635,0.364,0.879c0.486,0.484,1.273,0.484,1.76,0l9.081-9.083l9.082,9.083
	c0.488,0.484,1.275,0.484,1.761,0c0.485-0.486,0.485-1.273,0-1.76l-9.839-9.84c-0.034-0.045-0.071-0.088-0.113-0.129
	c-0.245-0.246-0.567-0.367-0.889-0.365c-0.321-0.002-0.643,0.119-0.888,0.365c-0.042,0.041-0.081,0.086-0.116,0.133l-9.837,9.836
	C0.902,32.128,0.78,32.444,0.78,32.765z"/>
</svg>
